<svg width="17" height="21" viewBox="0 0 17 21" fill="none" xmlns="http://www.w3.org/2000/svg">
<path d="M16.1215 8.63856C16.0285 8.5431 15.6774 8.13494 15.3503 7.79919C13.4327 5.68758 8.43027 2.23133 5.81201 1.17635C5.41438 1.00683 4.40909 0.648042 3.87197 0.625C3.35729 0.625 2.86667 0.7435 2.39849 0.983792C1.81487 1.31954 1.3467 1.84785 1.09016 2.47163C0.925019 2.90448 0.668484 4.19975 0.668484 4.22279C0.411948 5.63985 0.270853 7.94238 0.270853 10.4868C0.270853 12.9111 0.411948 15.1199 0.621986 16.5583C0.646036 16.5814 0.902571 18.191 1.18316 18.7423C1.69783 19.7496 2.70313 20.375 3.77897 20.375H3.87197C4.57263 20.3503 6.0461 19.7249 6.0461 19.7019C8.52327 18.6452 13.4103 15.3585 15.3744 13.1745C15.3744 13.1745 15.9275 12.6133 16.168 12.2627C16.5432 11.7591 16.7292 11.1353 16.7292 10.5115C16.7292 9.81533 16.5191 9.16688 16.1215 8.63856" fill="#3E8847"/>
</svg>
